P3
4 3
255
51 76 34 51 76 34 52 77 35 
34 53 83 33 53 83 33 53 83 
87 37 57 87 37 57 87 37 57 
63 93 39 63 93 39 63 93 39 
