P3
4 3
255
53 53 53 53 53 53 54 54 54 56 56 56 
56 56 56 56 56 56 60 60 60 60 60 60 
60 60 60 65 65 65 65 65 65 65 65 65 
